HIERARCHY
ROOT Hips
{
	OFFSET 0 0 0
	CHANNELS 6 Xposition Yposition Zposition Yrotation Xrotation Zrotation
	JOINT Spine
	{
		OFFSET -0 8.0983 -2.58133
		CHANNELS 3 Yrotation Xrotation Zrotation
		JOINT Spine1
		{
			OFFSET -0 7.88588 0
			CHANNELS 3 Yrotation Xrotation Zrotation
			JOINT Spine2
			{
				OFFSET -0 7.88588 0
				CHANNELS 3 Yrotation Xrotation Zrotation
				JOINT Spine3
				{
					OFFSET -0 7.88588 0
					CHANNELS 3 Yrotation Xrotation Zrotation
					JOINT Neck
					{
						OFFSET -0 15.0463 3.58133
						CHANNELS 3 Yrotation Xrotation Zrotation
						JOINT Head
						{
							OFFSET -0 10.1229 0
							CHANNELS 3 Yrotation Xrotation Zrotation
							End Site
							{
								OFFSET 0 15 0
							}
						}
					}
					JOINT LeftShoulder
					{
						OFFSET 1.68715 7.22993 3.37429
						CHANNELS 3 Yrotation Xrotation Zrotation
						JOINT LeftArm
						{
							OFFSET 14.7943 0 0
							CHANNELS 3 Yrotation Xrotation Zrotation
							JOINT LeftForeArm
							{
								OFFSET 25.9782 0 0
								CHANNELS 3 Yrotation Xrotation Zrotation
								JOINT LeftHand
								{
									OFFSET 21.1435 0 0
									CHANNELS 3 Yrotation Xrotation Zrotation
									End Site
									{
										OFFSET 15 0 0
									}
								}
							}
						}
					}
					JOINT RightShoulder
					{
						OFFSET -1.68715 7.22993 3.37429
						CHANNELS 3 Yrotation Xrotation Zrotation
						JOINT RightArm
						{
							OFFSET -14.7943 0 0
							CHANNELS 3 Yrotation Xrotation Zrotation
							JOINT RightForeArm
							{
								OFFSET -25.9782 0 0
								CHANNELS 3 Yrotation Xrotation Zrotation
								JOINT RightHand
								{
									OFFSET -21.1435 0 0
									CHANNELS 3 Yrotation Xrotation Zrotation
									End Site
									{
										OFFSET -15 0 0
									}
								}
							}
						}
					}
				}
			}
		}
	}
	JOINT LeftUpLeg
	{
		OFFSET 10.1229 -3.37429 2
		CHANNELS 3 Yrotation Xrotation Zrotation
		JOINT LeftLeg
		{
			OFFSET -0 -35.8499 2.362
			CHANNELS 3 Yrotation Xrotation Zrotation
			JOINT LeftFoot
			{
				OFFSET -0 -42.3872 -2.362
				CHANNELS 3 Yrotation Xrotation Zrotation
				JOINT LeftToeBase
				{
					OFFSET -0 -6.51407 15.1843
					CHANNELS 3 Yrotation Xrotation Zrotation
					End Site
					{
						OFFSET 0 0 5
					}
				}
			}
		}
	}
	JOINT RightUpLeg
	{
		OFFSET -10.1229 -3.37429 2
		CHANNELS 3 Yrotation Xrotation Zrotation
		JOINT RightLeg
		{
			OFFSET -0 -35.8499 2.362
			CHANNELS 3 Yrotation Xrotation Zrotation
			JOINT RightFoot
			{
				OFFSET -0 -42.3872 -2.362
				CHANNELS 3 Yrotation Xrotation Zrotation
				JOINT RightToeBase
				{
					OFFSET -0 -6.51407 15.1843
					CHANNELS 3 Yrotation Xrotation Zrotation
					End Site
					{
						OFFSET 0 0 5
					}
				}
			}
		}
	}
}
MOTION
Frames: 11
Frame Time: 0.00833333
-104.666357 88.861279 -88.014337 -176.913031 -1.550115 -3.094953 -2.600721 7.429777 1.787672 -1.213509 5.317531 1.465392 0.194888 3.027688 0.595648 1.113116 2.014438 0.638295 6.656369 -12.789595 0.442286 3.625633 -20.058907 -1.854338 5.470858 8.273855 4.134192 -49.476463 -17.091380 -67.832393 -14.738514 -3.324324 8.558448 22.684340 -11.020388 0.077055 -5.737861 10.398857 -0.028083 52.120788 -7.734014 61.287364 14.378726 -5.380604 -6.380671 -8.911686 -4.076076 4.625133 -2.417140 -11.484888 8.271249 0.000000 60.101050 0.000000 -7.116931 30.266593 -8.506563 0.000000 -12.364204 0.000000 -5.166598 -21.951994 7.991443 0.000000 26.406284 0.000000 0.050814 8.141222 -2.213692 0.000000 -6.304788 0.000000
-104.520386 89.057288 -88.813739 -176.914350 -1.583289 -3.164544 -2.326059 7.424533 1.949783 -0.936561 5.314044 1.528787 0.184351 3.068213 0.520545 1.045990 2.077452 0.626966 6.318041 -12.733552 0.481017 3.468366 -20.325607 -1.784822 5.329160 8.231910 3.957744 -49.301691 -17.171194 -67.713416 -14.762525 -3.086852 8.454443 22.627970 -10.910370 0.440769 -5.579003 10.289457 0.144201 51.576673 -7.922861 60.935559 14.327230 -5.280932 -6.075361 -8.531902 -4.039965 3.680262 -2.217199 -12.939996 8.492636 0.000000 61.588368 0.000000 -5.173099 29.846051 -7.655799 0.000000 -12.527975 0.000000 -5.201545 -21.029150 8.143192 0.000000 25.943501 0.000000 0.093546 7.726427 -2.253009 0.000000 -6.202572 0.000000
-104.391956 89.261859 -89.620264 -176.920998 -1.632336 -3.208328 -2.138568 7.439602 2.062199 -0.749080 5.330241 1.586093 0.161742 3.065671 0.503768 1.001631 2.067234 0.574889 6.219385 -12.734331 0.531339 3.446601 -20.126808 -1.845749 5.329013 8.181321 3.684722 -49.494795 -16.881659 -67.585693 -14.897253 -2.989741 8.693808 22.606577 -10.945303 0.395132 -5.498983 10.308664 0.310389 51.785338 -7.810732 60.419189 14.263403 -5.125317 -6.088403 -8.353259 -4.198902 3.385739 -1.948452 -14.245568 8.617368 0.000000 62.870718 0.000000 -2.981776 28.519353 -6.560709 0.000000 -12.156526 0.000000 -5.285652 -20.086040 8.258407 0.000000 25.492838 0.000000 0.246388 7.342807 -2.318290 0.000000 -6.115878 0.000000
-104.273547 89.461359 -90.416455 -177.001994 -1.671061 -3.201744 -1.973822 7.440871 2.053952 -0.586866 5.315563 1.601950 0.194076 3.113830 0.684623 1.108984 2.140741 0.443741 5.993791 -12.726201 0.445520 3.270959 -20.196354 -1.647192 5.252613 8.191585 3.405638 -49.530156 -16.859265 -67.404743 -14.931723 -3.048180 8.845208 22.476370 -10.984549 0.579392 -5.423319 10.222954 0.349992 51.827469 -7.671529 60.102781 14.339145 -4.838098 -6.361653 -8.352160 -4.052831 3.324592 -1.678659 -15.401675 8.639774 0.000000 63.806001 0.000000 -0.743175 26.738537 -5.518458 0.000000 -12.340770 0.000000 -5.250771 -19.167370 8.306929 0.000000 25.012593 0.000000 0.386135 6.967498 -2.364867 0.000000 -6.089027 0.000000
-104.166785 89.678265 -91.191217 -177.193745 -1.673267 -3.209067 -1.722233 7.415857 2.299518 -0.324738 5.392512 1.649929 0.266471 3.088479 0.364088 1.003750 2.119928 0.444456 5.813282 -12.769357 0.571007 3.241272 -20.055263 -1.741424 5.240724 8.191416 3.284440 -49.380274 -16.757523 -67.397787 -15.240968 -2.935658 9.061275 22.464544 -10.932932 0.829963 -5.426545 10.292363 0.535567 52.241244 -7.589915 59.574542 14.281805 -5.159911 -6.492608 -8.323383 -3.832571 3.058485 -1.211328 -16.597080 8.656151 0.000000 64.584269 0.000000 1.283520 24.858511 -4.471432 0.000000 -11.941843 0.000000 -5.168625 -18.252519 8.368651 0.000000 24.414568 0.000000 0.589514 6.688112 -2.337045 0.000000 -5.947244 0.000000
-104.107678 89.914960 -91.942749 -177.380233 -1.627453 -3.022688 -1.570761 7.404917 2.180399 -0.184589 5.394843 1.647467 0.290917 3.103793 0.470359 1.031774 2.029260 0.388056 5.833905 -12.638134 0.346802 3.136610 -20.085745 -1.521988 5.228005 8.332415 2.908398 -49.262977 -16.613846 -67.317446 -15.552965 -2.904714 9.383828 22.316189 -10.863119 0.736547 -5.217468 10.273711 0.608121 52.051852 -7.581914 59.167483 14.415549 -4.873703 -6.473754 -8.608416 -3.653613 2.683436 -0.767799 -17.762602 8.316594 0.000000 65.025684 0.000000 3.500658 23.098678 -3.334808 0.000000 -11.502157 0.000000 -4.937910 -17.451259 8.172655 0.000000 23.839786 0.000000 0.705172 6.413276 -2.196265 0.000000 -5.842605 0.000000
-104.016565 90.158911 -92.677429 -177.597148 -1.590552 -2.970432 -1.404952 7.436859 2.160311 -0.025810 5.370788 1.631602 0.384405 3.138025 0.600856 1.108703 2.029351 0.362947 5.648962 -12.585981 0.276315 3.056750 -20.227740 -1.580969 5.192550 8.236722 2.538832 -49.061358 -16.425641 -67.268510 -15.907690 -2.862791 9.492775 22.279323 -11.192213 1.125566 -5.106645 10.078613 0.578545 52.209214 -7.446802 58.843989 14.377932 -4.771229 -6.511672 -8.471010 -4.307452 2.330608 -0.305988 -18.876559 8.157811 0.000000 65.200237 0.000000 5.485955 21.707497 -2.520287 0.000000 -11.840505 0.000000 -4.763245 -16.473696 8.145113 0.000000 22.959702 0.000000 0.921531 6.314742 -2.145686 0.000000 -5.824564 0.000000
-103.975647 90.386230 -93.425659 -177.857175 -1.501940 -2.790718 -1.197447 7.400328 2.221533 0.179765 5.311993 1.600779 0.450151 3.123965 0.443762 1.064095 2.119875 0.346880 5.589638 -12.764947 0.247672 3.021565 -19.905208 -1.589010 5.178776 8.279026 2.313140 -48.650391 -16.499434 -67.295863 -16.063659 -2.496155 9.719567 22.129221 -11.302035 1.215189 -4.967569 9.979543 0.656506 52.424163 -7.305868 58.477710 14.498255 -4.900819 -6.676068 -8.635473 -4.401828 1.760956 0.311281 -19.957455 7.784363 0.000000 65.125176 0.000000 7.381996 20.403302 -1.284971 0.000000 -11.704829 0.000000 -4.669346 -15.738472 7.959945 0.000000 22.407225 0.000000 1.281609 6.176828 -2.043463 0.000000 -5.932076 0.000000
-103.938489 90.611353 -94.178497 -178.119477 -1.513569 -2.611675 -1.051931 7.423324 2.250837 0.323771 5.291831 1.555497 0.569259 3.195157 0.383270 1.110618 2.097085 0.293553 5.538261 -12.664574 0.128209 2.959393 -20.018305 -1.541824 5.104367 8.410004 2.027681 -48.492967 -16.481764 -67.135577 -16.423866 -2.858166 9.658595 21.833465 -11.986235 2.235337 -4.979240 9.887857 0.693780 52.533692 -7.326356 58.129164 14.601872 -4.860977 -6.767325 -8.738054 -4.498426 1.234042 0.978896 -20.829627 7.355619 0.000000 64.791855 0.000000 9.237586 19.194373 0.031880 0.000000 -11.438187 0.000000 -4.436032 -14.828060 7.748424 0.000000 21.734201 0.000000 1.534163 5.954518 -1.842935 0.000000 -5.841655 0.000000
-103.924097 90.821008 -94.915173 -178.446386 -1.539051 -2.347582 -0.780770 7.529314 2.230287 0.561573 5.358581 1.522124 0.595096 3.081079 0.273589 1.053135 2.022447 0.217265 5.450665 -12.561012 0.047402 2.869869 -20.016723 -1.434625 5.083431 8.355181 1.884738 -48.176537 -16.346453 -67.276628 -16.657558 -2.403830 9.806716 21.838092 -12.801449 2.420255 -4.835555 9.744099 0.698985 52.367681 -7.333008 57.994771 14.760969 -4.870573 -6.874173 -8.719878 -4.739617 1.186211 1.717688 -21.640256 6.814389 0.000000 64.240641 0.000000 10.973528 18.242248 1.202341 0.000000 -11.465851 0.000000 -4.159412 -13.946961 7.453214 0.000000 21.097609 0.000000 1.777735 5.743900 -1.829561 0.000000 -5.821192 0.000000
-103.921936 91.029840 -95.662921 -178.799807 -1.551574 -2.123011 -0.671855 7.477325 2.316545 0.674665 5.429546 1.497548 0.794876 3.183138 -0.038820 1.062083 2.069393 0.235930 5.394521 -12.721817 0.103293 2.917359 -19.819531 -1.654251 5.102868 8.265431 1.757783 -47.817829 -16.359765 -67.375809 -16.963244 -2.508930 9.973245 21.760664 -12.780993 2.498394 -4.836877 9.659888 0.696419 52.816206 -7.310461 57.502190 14.812796 -4.753819 -6.890106 -8.746991 -5.530783 0.850945 2.486826 -22.296517 6.255071 0.000000 63.363489 0.000000 12.583350 17.472244 2.498123 0.000000 -11.462181 0.000000 -3.842176 -13.097172 7.167201 0.000000 20.495109 0.000000 2.038031 5.511982 -1.594133 0.000000 -5.711874 0.000000
